<!DOCTYPE svg PUBLIC "-//W3C//DTD SVG 1.1//EN" "http://www.w3.org/Graphics/SVG/1.1/DTD/svg11.dtd">
<!-- Uploaded to: SVG Repo, www.svgrepo.com, Transformed by: SVG Repo Mixer Tools -->
<svg fill="#A52A2A" height="800px" width="800px" version="1.1" id="Layer_1" xmlns="http://www.w3.org/2000/svg" xmlns:xlink="http://www.w3.org/1999/xlink" viewBox="0 0 512.00 512.00" xml:space="preserve" stroke="#A52A2A" stroke-width="0.00512">
<g id="SVGRepo_bgCarrier" stroke-width="0"/>
<g id="SVGRepo_tracerCarrier" stroke-linecap="round" stroke-linejoin="round"/>
<g id="SVGRepo_iconCarrier"> <g> <g> <path d="M501.546,161.19c-2.248-5.548-7.922-8.608-13.78-7.432c-5.895,1.175-9.974,6.198-9.921,12.205l0.001,0.147 c0,30.7-24.977,55.676-55.678,55.676c-18.664,0-35.998-9.286-46.366-24.841c-0.039-0.058-0.078-0.116-0.12-0.173l-2.284-3.257 c-0.053-0.076-0.108-0.152-0.164-0.225c-15.56-20.766-40.338-32.646-66.285-31.732c-18.938,0.655-37.038,8.246-50.95,21.137 c-13.912-12.891-32.012-20.482-50.95-21.137c-25.925-0.915-50.725,10.966-66.285,31.732c-0.056,0.075-0.11,0.149-0.164,0.225 l-2.284,3.257c-0.04,0.058-0.079,0.116-0.12,0.173c-10.368,15.555-27.701,24.841-46.366,24.841 c-30.7,0-55.678-24.976-55.678-55.676v-0.14c0.055-6.013-4.025-11.036-9.92-12.213c-5.866-1.174-11.532,1.885-13.78,7.43 C3.518,178.303,0,196.422,0,215.043c0,38.466,15.257,74.682,42.961,101.977c27.718,27.307,64.178,42.002,102.665,41.455 c43.337-0.646,83.732-20.802,110.373-54.515c26.641,33.713,67.037,53.869,110.373,54.515c0.724,0.011,1.444,0.017,2.167,0.017 c37.688,0,73.303-14.678,100.499-41.472C496.742,289.725,512,253.508,512,215.043C512,196.422,508.483,178.303,501.546,161.19z M456.565,304.359c-24.3,23.939-56.264,36.812-89.928,36.346c-41.686-0.621-80.27-21.855-103.209-56.8 c-1.642-2.501-4.435-4.01-7.429-4.01s-5.786,1.507-7.429,4.01c-22.94,34.943-61.524,56.178-103.209,56.8 c-33.702,0.463-65.627-12.406-89.928-36.346c-24.285-23.927-37.66-55.648-37.66-89.316c0-8.558,0.847-16.992,2.527-25.242 c9.878,28.911,37.317,49.758,69.531,49.758c24.584,0,47.414-12.209,61.094-32.662l2.145-3.058 c12.081-16.05,31.277-25.221,51.367-24.52c17.187,0.595,33.505,8.596,44.772,21.951c1.688,2.001,4.174,3.157,6.793,3.157 s5.104-1.155,6.793-3.157c11.266-13.355,27.585-21.356,44.771-21.951c20.119-0.68,39.285,8.471,51.367,24.52l2.145,3.058 c13.679,20.455,36.51,32.662,61.094,32.662c32.215,0,59.652-20.847,69.531-49.758c1.68,8.248,2.527,16.683,2.527,25.242 C494.227,248.711,480.852,280.432,456.565,304.359z"/> </g> </g> </g>
</svg>