<!DOCTYPE svg PUBLIC "-//W3C//DTD SVG 1.1//EN" "http://www.w3.org/Graphics/SVG/1.1/DTD/svg11.dtd">
<!-- Uploaded to: SVG Repo, www.svgrepo.com, Transformed by: SVG Repo Mixer Tools -->
<svg fill="#A52A2A" height="800px" width="800px" version="1.1" id="Layer_1" xmlns="http://www.w3.org/2000/svg" xmlns:xlink="http://www.w3.org/1999/xlink" viewBox="0 0 512 512" xml:space="preserve">
<g id="SVGRepo_bgCarrier" stroke-width="0"/>
<g id="SVGRepo_tracerCarrier" stroke-linecap="round" stroke-linejoin="round"/>
<g id="SVGRepo_iconCarrier"> <g> <g> <path d="M438.461,40.219V8.727c0-4.82-3.907-8.727-8.727-8.727c-4.82,0-8.727,3.908-8.727,8.727v31.491 c0,72.965-59.361,132.325-132.325,132.325h-72.227c-11.901,0-48.113,0-48.113-69.213v-4.62c0.256-14.241,0.176-28.41,0.085-42.307 c-0.036-5.428-0.07-10.968-0.085-16.512V28.755c0-6.23,5.069-11.3,11.3-11.3h205.005c4.82,0,8.727-3.908,8.727-8.727 S389.466,0,384.646,0H179.641c-12.98,0-23.976,8.649-27.536,20.485l-0.609,0.003c-1.541,0.014-2.896,0.332-4.059,0.867 c-27.862,4.129-53.285,22.408-65.612,48.123c-0.73,1.47-3.035,7.233-3.455,8.073c-0.108,0.216-0.207,0.436-0.297,0.661 c-2.927,7.315-2.952,14.331-2.952,20.534c-0.168,4.468-0.401,8.937-0.649,13.663c-1.449,27.628-3.089,58.942,10.847,85.516 c2.238,4.268,7.514,5.915,11.782,3.676c4.268-2.239,5.915-7.514,3.676-11.782c-11.713-22.335-10.27-49.869-8.874-76.496 c0.243-4.639,0.495-9.436,0.667-14.09c0.003-0.108,0.006-0.215,0.006-0.323c0-5.227,0-9.756,1.595-13.938 c0.668-1.385,2.882-6.92,3.301-7.759c0.023-0.045,0.045-0.092,0.068-0.137c9.976-20.859,30.724-35.596,53.339-38.587 c0.001,0.531,0.005,1.059,0.006,1.59V98.83c-0.173,9.343-0.493,18.689-1.078,27.962c-1.399,0.68-9.858,8.4-10.458,9 c-12.638,12.637-20.734,29.233-23.415,47.992c-0.021,0.148-0.038,0.296-0.051,0.443c-0.738,8.115-0.593,15.831-0.372,23.306 h-13.526c-10.857,0-19.688,8.832-19.688,19.688v65.891c0,10.857,8.832,19.688,19.688,19.688h12.991l-6.443,25.216 c-12.257,47.97,2.359,99.023,38.143,133.239C174.156,497.53,210.226,512,248.246,512c0.719,0,3.444,0,4.162,0 c38.018,0,74.09-14.47,101.569-40.744c35.784-34.216,50.401-85.269,38.143-133.239c-0.099-0.385-0.223-0.763-0.374-1.132 l-9.813-24.084h12.572c10.857,0,19.688-8.832,19.688-19.688v-65.891c0-10.857-8.832-19.688-19.688-19.688h-13.852V160.31 c0-0.621-0.068-1.225-0.191-1.811C415.728,131.07,438.461,88.251,438.461,40.219z M115.837,295.348h-13.851 c-1.232-0.001-2.234-1.003-2.234-2.234v-65.891c0-1.232,1.002-2.233,2.233-2.233h13.852V295.348z M380.653,224.989h13.852 c1.232,0,2.233,1.002,2.233,2.233v65.891c0,1.232-1.002,2.233-2.233,2.233h-13.852V224.989z M133.248,186.033 c2.117-14.521,8.226-27.331,17.697-37.135c2.29-1.496,3.823-3.358,4.997-4.785c0.045-0.055,0.086-0.102,0.13-0.157 c2.148,7.187,4.954,13.575,8.424,19.117c11.184,17.866,28.666,26.924,51.96,26.924h72.227c27.109,0,52.559-7.239,74.518-19.887 v46.151h-0.001v87.813v1.714l-23.658,10.925c-5.702,2.633-11.597,5.047-17.522,7.174c-7.078,2.541-14.366,4.733-21.718,6.531 c-14.163-10.936-32.462-16.912-52.055-16.912c-19.429,0-37.619,5.894-51.743,16.68c-13.663-3.411-26.995-8.156-39.689-14.129 l-23.519-11.067v-0.916v-81.358v-6.455c0-0.436-0.043-0.862-0.105-1.282c-0.047-1.914-0.102-3.802-0.159-5.655 C132.786,201.371,132.555,193.855,133.248,186.033z M341.914,458.64c-24.215,23.154-56.002,35.905-89.506,35.905 c-0.719,0-3.444,0-4.162,0c-33.503,0-65.29-12.751-89.506-35.905c-31.236-29.866-43.992-74.43-33.294-116.302l4.961-19.416 l18.974,8.929c15.092,7.102,31.018,12.596,47.332,16.333c2.715,0.621,5.562-0.09,7.666-1.913 c11.22-9.729,27.209-15.309,43.867-15.309c16.789,0,32.861,5.649,44.095,15.501c1.608,1.409,3.659,2.166,5.754,2.166 c0.635,0,1.276-0.07,1.909-0.212c9.446-2.118,18.837-4.843,27.912-8.1c6.405-2.299,12.779-4.908,18.944-7.756l20.432-9.435 l8.062,19.783C385.792,384.614,373.008,428.909,341.914,458.64z"/> </g> </g> <g> <g> <path d="M274.161,201.011c-19.102,0-34.643,15.54-34.643,34.643v51.618c0,4.82,3.908,8.727,8.727,8.727s8.727-3.907,8.727-8.727 v-51.618c0-9.478,7.71-17.188,17.188-17.188c4.82,0,8.727-3.908,8.727-8.727S278.981,201.011,274.161,201.011z"/> </g> </g> <g> <g> <circle cx="295.471" cy="243.363" r="9.469"/> </g> </g> <g> <g> <circle cx="192.791" cy="243.363" r="9.469"/> </g> </g> <g> <g> <path d="M283.249,368.625c-1.285-4.646-6.092-7.369-10.736-6.087c-7.231,1.998-14.741,3.057-22.321,3.146 c-8.851,0.108-17.634-1.115-26.045-3.622c-4.621-1.377-9.479,1.252-10.858,5.869c-1.378,4.618,1.251,9.48,5.869,10.858 c9.699,2.892,19.779,4.356,29.983,4.356c0.418,0,0.837-0.002,1.256-0.007c9.081-0.107,18.085-1.378,26.764-3.776 C281.808,378.078,284.534,373.271,283.249,368.625z"/> </g> </g> </g>
</svg>